# xmcd
#
# Track frame offsets: 
#        150
#        14819
#        36485
#        54482
#        69395
#        86763
#        108315
#        122565
#        137189
#        158958
#        175431
#        192504
#        208863
#
# Disc length: 2983 seconds
#
# Revision: 2
# Processed by: cddbd v1.5.2PL0 Copyright (c) Steve Scherf et al.
# Submitted via: ExactAudioCopyFreeDBPlugin 1.0
#
DISCID=c60ba50d
DTITLE=Various Artist - Putumayo Presents Bluegrass
DYEAR=2012
DGENRE=Bluegrass
TTITLE0=Alison Krauss and Union Station - Every Time You Say Goodbye
TTITLE1=Railroad Earth - Been Down This Road
TTITLE2=David Grisman and Jerry Garcia - Jackaroo
TTITLE3=Andrea Zonn with Alison Brown - New Night Dawning
TTITLE4=Frank Solivan - Across The Great Divide
TTITLE5=Peter Rowan - Man Of Constant Sorrow
TTITLE6=James Alan Shelton - Shady Grove
TTITLE7=Crooked Still - New Railroad
TTITLE8=Seldom Scene - Boots Of Spanish Leather
TTITLE9=Uncle Earl - The Last Goodbye
TTITLE10=Town Mountain - Diggin' On The Mountainside
TTITLE11=Sam Bush - Diamond Joe
TTITLE12=Varoious Artists - I'll Fly Away
EXTD=
EXTT0=
EXTT1=
EXTT2=
EXTT3=
EXTT4=
EXTT5=
EXTT6=
EXTT7=
EXTT8=
EXTT9=
EXTT10=
EXTT11=
EXTT12=
PLAYORDER=
